HIERARCHY
ROOT Spine
{
    OFFSET 0.0 0.0 -0.0
    CHANNELS 6 Xposition Yposition Zposition Zrotation Xrotation Yrotation
    JOINT ShoulderCenter
    {
        OFFSET 0.0 32.617279052734375 0.0
        CHANNELS 3 Zrotation Xrotation Yrotation
        JOINT LeftShoulder
        {
            OFFSET 18.428611755371094 0.0 0.0
            CHANNELS 3 Zrotation Xrotation Yrotation
            JOINT LeftElbow
            {
                OFFSET 32.48215866088867 0.0 0.0
                CHANNELS 3 Zrotation Xrotation Yrotation
                JOINT LeftHand
                {
                    OFFSET 33.74822998046875 0.0 0.0
                    CHANNELS 3 Zrotation Xrotation Yrotation
                    End Site
                    {
                        OFFSET 13.499292373657227 0.0 0.0
                    }
                }
            }
        }
        JOINT RightShoulder
        {
            OFFSET -18.428611755371094 0.0 0.0
            CHANNELS 3 Zrotation Xrotation Yrotation
            JOINT RightElbow
            {
                OFFSET -32.48215866088867 0.0 0.0
                CHANNELS 3 Zrotation Xrotation Yrotation
                JOINT RightHand
                {
                    OFFSET -33.74822998046875 0.0 0.0
                    CHANNELS 3 Zrotation Xrotation Yrotation
                    End Site
                    {
                        OFFSET -13.499292373657227 0.0 0.0
                    }
                }
            }
        }
        End Site
        {
            OFFSET 0.0 13.046911239624023 0.0
        }
    }
    JOINT LeftHip
    {
        OFFSET 16.98884301678807 -16.98884301678807 0.0
        CHANNELS 3 Zrotation Xrotation Yrotation
        JOINT LeftKnee
        {
            OFFSET 0.0 -42.42488098144531 0.0
            CHANNELS 3 Zrotation Xrotation Yrotation
            JOINT LeftFoot
            {
                OFFSET 0.0 -51.24627685546875 0.0
                CHANNELS 3 Zrotation Xrotation Yrotation
                End Site
                {
                    OFFSET 0.0 0.0 20.498512268066406
                }
            }
        }
    }
    JOINT RightHip
    {
        OFFSET -16.98884301678807 -16.98884301678807 0.0
        CHANNELS 3 Zrotation Xrotation Yrotation
        JOINT RightKnee
        {
            OFFSET 0.0 -42.42488098144531 0.0
            CHANNELS 3 Zrotation Xrotation Yrotation
            JOINT RightFoot
            {
                OFFSET 0.0 -51.24627685546875 0.0
                CHANNELS 3 Zrotation Xrotation Yrotation
                End Site
                {
                    OFFSET 0.0 0.0 20.498512268066406
                }
            }
        }
    }
}
MOTION
Frames: 9
Frame Time: 0.03333333333333333
-42.79999923706055 24.200000762939453 22.200000762939453 -5.290081584512635 4.218415649426353 -85.26835446513626 -2.7306829968135623e-08 1.4744243485191397e-07 4.067085163037364 125.20111963279034 52.8436071698021 -60.61268797709592 3.6854834294161923e-07 -5.7283033692621284e-06 36.428980665210666 -6.3611093629270335e-15 -1.5902773407317584e-15 -8.827812596100317e-32 -126.482759580436 71.95200609288577 77.49913542754113 2.7989647764246874e-06 7.978838824070212e-07 -38.52718894111557 9.14409470920761e-15 0.0 0.0 2.9346485612080504 -4.340772602178917 -1.6936242903999927 4.426389109115857 14.26607133246015 -35.19767112983906 3.975693351829396e-16 -7.413983235006126e-33 -2.1369351766083005e-15 7.397738352118884 1.6639719413136342 14.358967508523675 -5.1176172368222055 15.58931715081863 35.77903103034274 0.0 0.0 2.2860236773019026e-15
-42.599998474121094 27.599998474121094 22.30000114440918 -4.939213819843748 4.571010644842651 -85.6813663160852 6.353983296619162e-07 1.328042868826516e-07 4.5972175056267695 119.22764476739816 49.79576962606563 -47.95029382584813 2.545771610151837e-07 3.5000724338783696e-07 26.354211268367074 -6.3611093629270335e-15 -1.5902773407317584e-15 3.1805546814635168e-15 -133.5479240538518 74.83479621734756 81.94974779494484 8.702796655627555e-07 -2.277713993144643e-06 -35.591402582842186 3.1805546814635168e-15 -1.5902773407317584e-15 4.4139062980501586e-32 3.8142502600032877 -4.8676161071451425 5.312593739105033 6.54114153012442 13.665786051630311 -36.702238655921946 -3.9756933518293955e-16 -1.9310840053969444e-32 5.5659706925611536e-15 6.899197294836396 -0.2412578215079337 5.2105683679836705 -8.80658864944969 15.220637773250552 46.248586020771945 2.896626008095417e-32 1.391492673140289e-15 -2.3854160110976384e-15
-41.900001525878906 30.000001907348633 22.200000762939453 -3.896481574406073 5.644906249792015 -87.17790221640178 1.0259167424720317e-07 -1.0661261564277018e-07 5.545965628807302 108.98400339886223 36.99208324749779 -33.987768611786464 -4.090970109274829e-06 -9.740624390510995e-07 19.093917336958985 0.0 -3.1805546814635168e-15 0.0 -125.26800148339035 74.89588121025504 72.41814423547409 2.193309202522676e-07 -4.368435846737903e-07 -34.136432889982835 2.5842006786891076e-15 -1.5902773407317584e-15 1.5902773407317584e-15 5.007903143236155 -4.919309236893898 7.7786516185965 6.787662587145931 12.040050797459987 -31.247752513081362 0.0 0.0 6.212020862233429e-16 7.50653476120494 -4.159637525536908 -7.994634662834835 -14.216250382678316 16.671533306157738 67.2231387744445 0.0 0.0 5.963540027744094e-16
-41.29999923706055 31.0 21.799999237060547 -3.731394239525974 6.891415797242401 -89.32503960609652 -1.1283874786326736e-06 2.809836497623803e-07 5.9682490634557945 111.9963185937439 36.55989693785051 -35.08942296847871 3.2990791257177775e-07 2.6736870426961977e-06 20.445134466517537 -1.2722218725854067e-14 0.0 0.0 -136.5513952976447 74.45239951160981 82.97366970327059 -1.8056097157237927e-06 1.7054569630157466e-06 -35.29562196858954 3.776908684237925e-15 1.0483027457869126e-31 3.1805546814635164e-15 6.190685933897863 -2.8876900681767905 2.9726143371573723 3.939309966891072 10.295508030534128 -22.891010526767136 0.0 0.0 -2.9941940555965136e-15 9.297420755309188 -6.285089603637682 -13.548056560832869 -18.031325490133984 17.207973656706187 80.92276603017412 -3.4483642953516866e-32 -1.987846675914698e-15 -1.987846675914698e-15
-40.79999923706055 31.200000762939453 21.600000381469727 -4.085615818010655 7.412730758334225 -91.94957729420092 1.47443258445579e-07 5.767282806269904e-08 7.07320961939571 120.58919669782559 43.1029048986492 -42.46537453260626 3.1594195926016646e-06 -1.418288201553649e-06 23.301687321915853 6.3611093629270335e-15 -1.7655625192200634e-31 -3.1805546814635168e-15 -157.6255250211426 72.66592018954734 102.62488697290382 -4.088519531608664e-06 1.6537384912445138e-06 -36.990818037066994 2.7115471063648932e-15 3.763027537302528e-32 1.5902773407317588e-15 6.605168114416216 0.3004894158329436 -2.6902094475793565 3.1485779937311937 8.06616600520713 -16.3038884169863 0.0 0.0 5.590818776010087e-16 9.853286914299801 -6.8625567172979975 -17.08909865613083 -20.329226419194686 16.80861832458666 93.61614064297096 0.0 0.0 1.1927080055488186e-15
-40.099998474121094 30.30000114440918 21.399999618530273 -4.262608002535928 7.585506313676402 -94.06551232662441 -6.447249404303056e-07 1.034448659609181e-07 8.138382034056185 126.44836139736408 45.172327710368464 -47.423588610861785 -7.798918323554989e-07 -4.20768674839512e-06 23.55250844024271 -6.3611093629270335e-15 0.0 0.0 -157.5603612084034 69.93205910212866 101.08483868219675 -6.0841307686494106e-06 1.321730365948893e-06 -36.3731275500881 4.2365982280432e-15 -5.879461123574626e-32 -1.5902773407317584e-15 6.427676874716118 1.5189285015879388 -4.053712678854484 2.4250535982177044 8.725906369828012 -16.653797305178742 1.2414111463266072e-32 -7.951386703658792e-16 1.7890620083232284e-15 10.325123259718282 -7.163670057563039 -18.62509396539069 -21.599150455139487 17.045695400047954 96.37207034698342 0.0 0.0 -7.951386703658792e-16
-39.29999923706055 28.5 21.19999885559082 -4.2626133033151845 7.759787850195374 -95.6620511788041 1.0297862050911794e-07 -8.933557838870956e-07 9.432721743407644 128.48396693702796 43.88358239072463 -49.29485734801809 3.6748059998907227e-06 1.007150672096882e-06 22.327941174497273 0.0 3.1805546814635168e-15 0.0 -154.74928452322496 67.37044031144166 97.74899702790344 9.851399688727917e-07 -4.035747521733744e-06 -35.1078311844753 8.709253248851269e-15 -1.208651685520766e-31 -1.5902773407317582e-15 6.291227976169701 1.687902879788511 -5.487385887349732 1.4798725303179046 10.023782737431093 -18.496682790275653 0.0 0.0 9.34287937679908e-15 10.678719992570871 -6.724680281089092 -15.713089691724573 -20.034984498274383 18.342923476687677 90.64267080696507 0.0 0.0 1.3914926731402884e-15
-38.60000228881836 25.600000381469727 21.100000381469727 -4.249471786394072 7.388511341593217 -95.88817032162515 -5.579783521040006e-07 -1.7275926126352072e-07 9.009929337181127 129.59016262486216 43.42821988994017 -51.49574009470847 -2.2182696305886804e-06 -2.369738987933346e-07 22.62372996524609 0.0 0.0 0.0 -150.65754602657137 64.33469983591677 93.07965662217968 1.8209932657836525e-06 -4.425845832601842e-07 -34.64917888256402 -2.0375428428125655e-15 0.0 0.0 5.316425530283406 2.269136188353947 -8.153847002495342 0.9079712058351436 10.002074944369843 -17.470575380890843 0.0 0.0 6.758678698109974e-15 10.351545254971958 -5.5978965985131675 -10.03620798574407 -17.24566517591562 19.874644320343744 82.91932595649345 1.5902773407317584e-15 3.975693351829397e-16 4.373262687012335e-15
-38.0 22.899999618530273 21.100000381469727 -3.7198753171738925 7.219073407085434 -95.44677981750088 5.791946230925545e-07 1.9659821821006162e-07 7.562828609205105 132.49191275212056 45.70767211669513 -55.13486644605172 -3.1297355792467304e-06 2.267783713230271e-06 23.735734444844073 0.0 0.0 3.1805546814635168e-15 -144.84713386974693 61.1302267744889 87.55132847358637 -5.453540885963914e-06 -7.90948766686391e-07 -34.164232307588264 1.9878466759146977e-16 1.5902773407317582e-15 -2.758691436281349e-33 5.038869222940342 3.5456395684382933 -13.729048771867351 0.1815134320701549 8.023846716861058 -13.499285238397148 1.4483130040477084e-32 7.951386703658792e-16 -2.087239009710433e-15 10.392957347204465 -4.098900945454565 -1.0036171122087474 -12.57791876545567 21.047213310234167 71.07526070465889 1.5902773407317582e-15 5.517382872562698e-33 3.9756933518293955e-16
